<svg width="158" height="87" viewBox="0 0 158 87" fill="none" xmlns="http://www.w3.org/2000/svg">
<path fill-rule="evenodd" clip-rule="evenodd" d="M43.2394 0C19.3589 0 0 19.3589 0 43.2394C0 67.1199 19.359 86.4788 43.2394 86.4788H114.6C138.48 86.4788 157.839 67.1199 157.839 43.2394C157.839 19.3589 138.48 0 114.6 0H43.2394ZM78.9194 85.8741L84.0546 67.898L84.0609 67.8917C85.3881 63.2484 87.8765 59.0198 91.2913 55.605C94.7062 52.1902 98.9347 49.7017 103.578 48.3745L121.554 43.2394L103.572 38.098C98.9284 36.7708 94.6998 34.2823 91.285 30.8675C87.8702 27.4527 85.3818 23.2241 84.0546 18.5808L78.9194 0.604736L73.778 18.5871C72.4508 23.2304 69.9624 27.459 66.5476 30.8738C63.1327 34.2886 58.9042 36.7771 54.2608 38.1043L36.2848 43.2394L54.2671 48.3808C58.9105 49.708 63.1391 52.1965 66.5539 55.6113C69.9687 59.0261 72.4571 63.2547 73.7843 67.898L78.9194 85.8741Z" fill="black"/>
</svg>
