<svg width="87" height="87" viewBox="0 0 87 87" fill="none" xmlns="http://www.w3.org/2000/svg">
<rect x="0.46521" y="0.145264" width="86" height="86" rx="43" fill="black"/>
<path d="M48.5198 68.0433L43.3847 86.0193L38.2495 68.0433C36.9223 63.4 34.4339 59.1714 31.0191 55.7566C27.6043 52.3417 23.3757 49.8533 18.7324 48.5261L0.75 43.3847L18.726 38.2495C23.3694 36.9223 27.5979 34.4339 31.0128 31.0191C34.4276 27.6043 36.916 23.3757 38.2432 18.7324L43.3847 0.75L48.5198 18.726C49.847 23.3694 52.3354 27.5979 55.7502 31.0128C59.165 34.4276 63.3936 36.916 68.037 38.2432L86.0193 43.3847L68.0433 48.5198C63.4 49.847 59.1714 52.3354 55.7565 55.7502C52.3417 59.165 49.8533 63.3936 48.5261 68.037L48.5198 68.0433Z" fill="white" stroke="white" stroke-width="1.5" stroke-linecap="round" stroke-linejoin="round"/>
</svg>
