<svg width="2312" height="78" viewBox="0 0 2312 78" fill="none" xmlns="http://www.w3.org/2000/svg">
<path fill-rule="evenodd" clip-rule="evenodd" d="M38 2C17.0132 2 0 19.0132 0 40C0 60.9868 17.0132 78 38 78H100.713C121.7 78 138.713 60.9868 138.713 40C138.713 19.0132 121.7 2 100.713 2H38ZM69.3567 77.4684L73.8695 61.6706L73.8751 61.665C75.0415 57.5843 77.2284 53.8681 80.2294 50.8671C83.2304 47.866 86.9466 45.6791 91.0273 44.5127L106.825 39.9999L91.0218 35.4814C86.9411 34.315 83.2249 32.1281 80.2239 29.1271C77.2228 26.1261 75.0359 22.4099 73.8695 18.3292L69.3567 2.53133L64.8382 18.3347C63.6718 22.4154 61.4849 26.1316 58.4839 29.1327C55.4828 32.1337 51.7666 34.3206 47.686 35.487L31.8881 39.9999L47.6915 44.5183C51.7722 45.6847 55.4884 47.8716 58.4894 50.8726C61.4905 53.8737 63.6774 57.5899 64.8438 61.6706L69.3567 77.4684Z" fill="white"/>
<path d="M548.891 0.650919C527.698 3.38092 515.047 12.4159 511.069 27.6259C509.765 32.6309 509.765 45.0459 511.134 50.6359C514.004 62.7259 523.394 71.3709 537.675 75.0109C547.521 77.4809 555.673 78.1309 571.975 77.7409C592.32 77.2209 601.45 75.2709 610.383 69.5509C616.578 65.5209 621.795 57.4609 623.164 49.7909L623.621 47.3859H608.427L593.233 47.4509L591.277 50.8309C589.712 53.5609 588.538 54.6009 585.343 56.2259C580.257 58.8259 572.236 60.0609 563.237 59.5409C551.695 58.8909 544.587 55.5759 541.718 49.5959C538.979 43.8109 539.24 33.0209 542.239 27.6259C543.935 24.5059 548.304 21.0609 551.695 20.0859C557.107 18.5259 566.823 17.8759 573.736 18.6559C583.647 19.7609 588.929 22.3609 591.668 27.6259L593.233 30.4859H608.362C616.709 30.4859 623.556 30.4209 623.556 30.2909C623.556 30.1609 623.099 28.4709 622.512 26.5209C618.143 11.8959 606.992 4.03092 586.256 0.975919C578.626 -0.194081 556.846 -0.324081 548.891 0.650919Z" fill="white"/>
<path d="M1901.01 0.325787C1883.6 2.79579 1874.66 6.56579 1867.56 14.1708C1860.51 21.7108 1857.58 35.4258 1860.32 48.5558C1862.27 58.1758 1866.38 64.5458 1873.62 69.1608C1883.21 75.4008 1891.62 77.2858 1912.16 77.7408C1927.88 78.1308 1936.42 77.4808 1945.81 75.3358C1960.68 71.8258 1970.26 62.7908 1972.41 50.1158L1972.87 47.3858H1957.87H1942.87L1941.18 50.2458C1940.27 51.8058 1938.63 53.8208 1937.59 54.7308C1930.61 60.5158 1908.12 61.4258 1897.94 56.2258C1891.88 53.2358 1889.27 47.9708 1889.27 39.0008C1889.27 33.0208 1890.12 29.7708 1892.6 26.1308C1896.57 20.4108 1906.94 17.5508 1920.77 18.4608C1931.92 19.1758 1938.5 22.1658 1941.44 27.9508L1942.74 30.4858H1957.74C1966.02 30.4858 1972.74 30.2908 1972.74 29.9658C1972.67 28.2758 1970.65 22.2958 1969.09 19.3708C1963.61 9.29579 1951.35 2.79579 1933.61 0.585787C1928.59 0.000787389 1904.86 -0.194213 1901.01 0.325787Z" fill="white"/>
<path d="M2018.06 0.650897C2015.58 0.975897 2010.89 1.9509 2007.63 2.8609C1992.56 7.0859 1985.13 13.5209 1980.83 25.9359C1979.26 30.4209 1979.06 45.8259 1980.5 50.9609C1984.8 66.4309 1996.67 74.4909 2019.04 77.2859C2027.19 78.2609 2047.73 78.0659 2056.47 76.9609C2073.81 74.6859 2084.25 68.8359 2089.4 58.5009C2092.27 52.7809 2093.05 48.6209 2093.05 38.9359C2093.05 28.6009 2091.75 23.4659 2087.57 17.1609C2081.77 8.4509 2069.9 2.6009 2053.93 0.650897C2047.14 -0.194103 2024.78 -0.194103 2018.06 0.650897ZM2051.25 20.0859C2059.66 22.6859 2063.38 28.4709 2063.38 38.9359C2063.38 49.5309 2059.66 55.1859 2050.86 57.9159C2046.82 59.1509 2044.67 59.4109 2036.32 59.4109C2025.04 59.4109 2019.3 58.0459 2014.93 54.4709C2010.43 50.7659 2009.58 48.2309 2009.58 38.8709C2009.58 30.9409 2009.65 30.6159 2011.54 27.5609C2014.02 23.5959 2017.54 21.1259 2022.62 19.8259C2028.17 18.3959 2030.06 18.2009 2038.93 18.5259C2044.54 18.6559 2048.12 19.1759 2051.25 20.0859Z" fill="white"/>
<path d="M186 38.9358V75.9858H199.694H213.388V66.8858V57.7858H229.951H246.514L252.188 66.8858L257.861 75.9858H273.12C281.532 75.9858 288.379 75.7908 288.379 75.5958C288.379 75.4008 287.14 73.2558 285.575 70.9158C284.01 68.5108 280.749 63.3758 278.271 59.4758L273.837 52.3258L275.402 51.3508C278.663 49.3358 284.01 43.2908 285.64 39.7158C287.14 36.5308 287.401 35.1658 287.401 29.8358C287.401 24.1808 287.205 23.2708 285.314 19.4358C281.336 11.3758 273.837 5.72084 263.86 3.18584C259.165 1.95084 256.557 1.88584 222.387 1.88584H186V38.9358ZM254.861 21.5158C261.708 25.2858 262.295 33.1508 255.97 37.1158C253.557 38.6108 253.166 38.6108 233.473 38.8058L213.388 39.0008V29.9658C213.388 25.0258 213.584 20.7358 213.844 20.4758C214.105 20.2158 222.974 20.0858 233.603 20.2158C250.297 20.4108 253.101 20.5408 254.861 21.5158Z" fill="white"/>
<path d="M298.16 38.9358V75.9858H343.807H389.454V66.8858V57.7858H358.023C340.677 57.7858 326.135 57.5258 325.679 57.2008C325.092 56.8758 324.896 55.4458 325.027 52.5208L325.222 48.3608L355.088 48.1658L384.889 48.0358V38.9358V29.8358L355.088 29.7058L325.222 29.5108V24.9608V20.4108L357.371 20.2158L389.454 20.0858V10.9858V1.88584H343.807H298.16V38.9358Z" fill="white"/>
<path d="M416.515 38.4158C404.713 58.5008 394.931 75.1408 394.801 75.4658C394.67 75.7258 401.256 75.9858 409.473 75.9858H424.406L426.623 72.0858L428.84 68.1858H453.098H477.356L479.573 71.8908L481.79 75.6608L496.658 75.8558C508.461 75.9858 511.46 75.8558 511.2 75.2058C511.069 74.7508 502.592 60.3208 492.485 43.1608C482.312 26.0008 472.726 9.68584 471.161 6.89084L468.292 1.88584H453.163H438.035L416.515 38.4158ZM460.075 39.0658C463.205 44.3308 465.749 48.7508 465.749 48.9458C465.749 49.2058 460.01 49.3358 453.033 49.3358C446.055 49.3358 440.317 49.2058 440.317 49.0108C440.317 48.8158 443.186 43.8108 446.642 37.9608C451.989 28.8608 453.098 27.4958 453.685 28.4058C454.141 28.9908 457.011 33.8008 460.075 39.0658Z" fill="white"/>
<path d="M627.468 10.9858V20.0858H645.401H663.333V48.0358V75.9858H677.027H690.721L690.852 48.1658L691.047 20.4108L708.85 20.2158L726.587 20.0858V10.9858V1.88584H677.027H627.468V10.9858Z" fill="white"/>
<path d="M793.1 38.9358V75.9858H806.794H820.488L820.619 54.0808L820.814 32.2408L844.224 54.0808L867.635 75.9858H883.872H900.044V38.9358V1.88584H886.35H872.656V24.7008C872.656 38.2208 872.395 47.3858 872.069 47.2558C871.743 47.1258 860.592 36.9208 847.289 24.4408L823.162 1.88584H808.164H793.1V38.9358Z" fill="white"/>
<path d="M949.342 3.31598C948.82 4.16098 938.974 20.736 927.497 40.236L906.63 75.661L921.432 75.856C933.692 75.986 936.365 75.856 936.887 75.076C937.213 74.556 938.322 72.801 939.3 71.176L941.126 68.186H965.253H989.381L991.207 71.176C992.185 72.801 993.293 74.556 993.619 75.076C994.141 75.856 996.815 75.986 1009.01 75.856L1023.68 75.661L1017.36 64.936C1013.9 59.021 1004.18 42.511 995.706 28.211L980.382 2.21098L965.318 2.01598C950.32 1.88598 950.32 1.88598 949.342 3.31598ZM966.818 29.966C967.536 31.136 970.079 35.491 972.491 39.651C974.969 43.811 977.121 47.646 977.382 48.296C977.773 49.206 976.6 49.336 964.992 49.336C957.95 49.336 952.211 49.206 952.211 49.076C952.211 48.426 964.732 27.886 965.188 27.886C965.384 27.886 966.166 28.861 966.818 29.966Z" fill="white"/>
<path d="M1012.66 2.34083C1012.4 2.53583 1012.2 6.63083 1012.2 11.4408V20.0858L1030.33 20.2158L1048.4 20.4108L1048.59 48.1658L1048.72 75.9858H1062.42H1076.11V48.0358V20.0858H1094.04H1112.04L1111.84 11.1158L1111.65 2.21083L1062.35 2.01583C1035.29 1.95083 1012.86 2.08083 1012.66 2.34083Z" fill="white"/>
<path d="M1119.6 2.34084C1119.34 2.53584 1119.15 19.2408 1119.15 39.3908V75.9858H1132.84H1146.54V38.9358V1.88584H1133.3C1125.99 1.88584 1119.8 2.08084 1119.6 2.34084Z" fill="white"/>
<path d="M1153.12 2.34089C1153.12 2.66589 1163.03 19.2409 1175.1 39.2609L1197.07 75.6609L1209.79 75.7909L1222.5 75.9209L1232.61 58.9559C1238.15 49.5959 1248.07 33.0859 1254.65 22.1659C1261.17 11.3109 1266.52 2.27589 1266.52 2.14589C1266.52 1.95089 1259.87 1.95089 1251.72 2.01589L1236.85 2.21089L1223.48 24.4409C1216.11 36.7259 1209.98 46.7359 1209.79 46.7359C1209.59 46.7359 1203.4 36.7259 1196.03 24.4409L1182.66 2.21089L1167.86 2.01589C1159.71 1.95089 1153.06 2.08089 1153.12 2.34089Z" fill="white"/>
<path d="M1273.69 38.9358V75.9858H1319.34H1364.99V66.8858V57.7858L1332.9 57.6558L1300.76 57.4608V52.9108V48.3608L1330.62 48.1658L1360.42 48.0358V38.9358V29.8358L1330.62 29.7058L1300.76 29.5108V24.9608V20.4108L1332.9 20.2158L1364.99 20.0858V10.9858V1.88584H1319.34H1273.69V38.9358Z" fill="white"/>
<path d="M1428.89 2.08084C1428.89 2.21084 1438.8 18.8508 1450.93 39.0008L1473.04 75.6608L1485.69 75.7908L1498.34 75.9858L1520.38 39.3258C1532.45 19.1758 1542.36 2.47084 1542.36 2.27584C1542.36 2.01584 1535.71 1.95084 1527.62 2.01584L1512.88 2.21084L1499.38 24.5058C1486.93 45.2408 1485.89 46.7358 1484.97 45.6308C1484.45 44.9158 1478.26 34.8408 1471.28 23.1408L1458.56 1.88584H1443.76C1435.54 1.88584 1428.89 2.01584 1428.89 2.08084Z" fill="white"/>
<path d="M1549.53 38.9358V75.9858H1563.22H1576.92L1576.79 39.0658L1576.59 2.21084L1563.09 2.01584L1549.53 1.88584V38.9358Z" fill="white"/>
<path d="M1589.31 38.9358V75.9858H1629.67C1667.49 75.9858 1670.3 75.9208 1674.01 74.7508C1686.93 70.7858 1693.38 60.3858 1690.06 49.0108C1689.14 45.8908 1688.23 44.4608 1684.77 41.0158L1680.54 36.7908L1682.17 34.4508C1685.95 29.0558 1686.86 22.6858 1684.77 16.6408C1683.47 12.8058 1679.04 7.86584 1674.93 5.59084C1668.15 1.95084 1667.36 1.88584 1626.67 1.88584H1589.31V38.9358ZM1655.5 21.1258C1659.21 22.8808 1659.67 27.1708 1656.34 29.4458C1655.1 30.3558 1652.23 30.4858 1635.8 30.4858H1616.7V25.7408C1616.7 23.0758 1616.89 20.7358 1617.15 20.5408C1617.35 20.2808 1625.63 20.0858 1635.48 20.0858C1650.41 20.0858 1653.67 20.2808 1655.5 21.1258ZM1661.04 48.3608C1664.3 50.0508 1664.56 53.8208 1661.49 56.0958C1659.67 57.3958 1658.95 57.4608 1638.35 57.4608H1617.02L1616.83 52.3908L1616.63 47.3858H1637.89C1655.63 47.3858 1659.47 47.5808 1661.04 48.3608Z" fill="white"/>
<path d="M1700.62 2.34084C1700.36 2.53584 1700.16 19.2408 1700.16 39.3908V75.9858H1746.14H1792.11V66.8858V57.7858L1760.03 57.6558L1727.88 57.4608V52.9108V48.3608L1757.74 48.1658L1787.54 48.0358V38.9358V29.8358L1757.74 29.7058L1727.88 29.5108V24.9608V20.4108L1760.03 20.2158L1792.11 20.0858V10.9858V1.88584H1746.59C1721.55 1.88584 1700.82 2.08084 1700.62 2.34084Z" fill="white"/>
<path d="M2103.81 38.9358V75.9858H2135.11C2175.41 75.9858 2181.93 75.3358 2193.08 70.0058C2204.82 64.4158 2210.1 54.9258 2210.1 39.2608C2210.1 21.1258 2201.76 9.88084 2184.67 5.20084C2174.56 2.40584 2167 1.88584 2134.39 1.88584H2103.81V38.9358ZM2170.52 21.9058C2175.67 23.4008 2179.13 25.8708 2181.02 29.5758C2182.13 31.6558 2182.39 33.2808 2182.39 38.9358C2182.39 46.7358 2181.41 49.5308 2177.37 52.7808C2173.06 56.2258 2167.98 57.1358 2150.04 57.5908C2141.24 57.7858 2133.29 57.7858 2132.31 57.5258L2130.55 57.1358V39.0008C2130.55 29.0558 2130.74 20.7358 2131.07 20.4108C2131.33 20.1508 2139.28 20.0858 2148.81 20.2808C2163.28 20.6058 2166.8 20.8658 2170.52 21.9058Z" fill="white"/>
<path d="M2219.88 38.9358V75.9858H2265.86H2311.83V66.8858V57.7858L2279.75 57.6558L2247.6 57.4608V52.9108V48.3608L2277.14 48.1658L2306.61 48.0358V38.9358V29.8358H2276.94H2247.21L2247.4 25.0908L2247.6 20.4108L2279.75 20.2158L2311.89 20.0858L2311.7 11.1158L2311.5 2.21084L2265.73 2.01584L2219.88 1.88584V38.9358Z" fill="white"/>
</svg>
