<svg width="681" height="88" viewBox="0 0 681 88" fill="none" xmlns="http://www.w3.org/2000/svg">
<path fill-rule="evenodd" clip-rule="evenodd" d="M43.2394 0C19.3589 0 0 19.359 0 43.2394C0 67.1199 19.359 86.4788 43.2394 86.4788H114.6C138.48 86.4788 157.839 67.1199 157.839 43.2394C157.839 19.359 138.48 0 114.6 0H43.2394ZM78.9194 85.8741L84.0546 67.898L84.0609 67.8917C85.3881 63.2484 87.8765 59.0198 91.2913 55.605C94.7062 52.1901 98.9347 49.7017 103.578 48.3745L121.554 43.2394L103.572 38.098C98.9284 36.7708 94.6998 34.2823 91.285 30.8675C87.8702 27.4527 85.3818 23.2241 84.0546 18.5808L78.9194 0.604736L73.778 18.5871C72.4508 23.2304 69.9624 27.459 66.5476 30.8738C63.1327 34.2886 58.9042 36.7771 54.2608 38.1043L36.2848 43.2394L54.2671 48.3808C58.9105 49.708 63.1391 52.1965 66.5539 55.6113C69.9687 59.0261 72.4571 63.2547 73.7843 67.898L78.9194 85.8741Z" fill="black"/>
<path d="M607.018 0.641818C588.698 1.68195 576.081 5.25212 567.302 11.9146C561.431 16.3281 557.563 21.9785 555.362 29.2875C554.12 33.4762 553.668 36.6247 553.47 42.1064C552.765 63.0777 561.148 76.3463 579.214 82.8401C584.408 84.6955 591.549 86.2135 599.453 87.1131C605.691 87.8159 629.713 87.844 636.007 87.1131C649.754 85.5669 658.872 82.8401 665.872 78.2298C668.384 76.5712 672.421 72.72 674.115 70.3867C675.78 68.0534 677.643 64.3989 678.546 61.6721C679.28 59.4794 680.381 54.8691 680.409 53.9414C680.409 53.4916 679.478 53.4635 663.445 53.5197L646.508 53.6041L645.746 55.3751C643.685 60.1541 638.915 64.0054 633.269 65.4109C624.152 67.7161 610.546 67.7161 601.259 65.4109C598.183 64.6519 594.485 62.6279 592.368 60.5476C590.194 58.4111 589.235 56.9212 588.247 54.082C587.033 50.6242 586.609 47.3633 586.779 42.7811C587.259 30.1028 592.848 24.0026 606.03 21.8098C610.264 21.0789 624.321 21.0789 628.612 21.7536C637.814 23.2717 643.375 26.9543 645.972 33.2794L646.649 34.9099H680.438L680.268 33.8416C679.619 30.1309 677.728 24.7897 675.978 21.7536C673.691 17.7899 669.316 13.1515 665.533 10.6495C656.557 4.68989 644.814 1.65384 626.918 0.613707C621.414 0.304479 612.974 0.304479 607.018 0.641818Z" fill="black"/>
<path d="M176.831 85.5107H207.317V64.9893H244.154L250.646 75.25L257.139 85.4826L274.301 85.5107C283.729 85.5107 291.435 85.4545 291.435 85.3702C291.435 85.2858 288.556 80.7036 285.027 75.1657C281.527 69.6558 277.773 63.7805 276.728 62.1219L274.809 59.1139L276.841 57.7646C279.495 55.9936 284.18 51.327 285.931 48.7127C287.568 46.2107 288.951 43.1466 289.798 40.0824C290.278 38.2551 290.391 37.1026 290.391 33.6448C290.391 29.906 290.306 29.147 289.628 26.9543C288.019 21.585 285.535 17.5369 281.471 13.6294C275.119 7.52918 267.046 3.95901 257.139 2.86266C255.586 2.69399 239.44 2.58154 215.729 2.58154H176.831V85.5107ZM252.283 24.1431C257.534 26.1391 260.78 30.8337 259.877 35.1348C259.707 35.95 259.284 37.215 258.917 37.9178C258.127 39.4639 255.727 41.7129 253.808 42.6968C251.013 44.1024 249.743 44.1586 227.726 44.1867H207.317V23.356L228.996 23.4403C250.505 23.5247 250.646 23.5247 252.283 24.1431Z" fill="black"/>
<path d="M302.359 2.77832C302.246 2.86266 302.161 21.5288 302.161 44.2429V85.5107H332.647V61.2504C332.647 47.8974 332.732 36.9058 332.816 36.7933C332.929 36.709 334.849 38.3676 337.135 40.476C358.334 60.2384 381.452 81.8281 383.202 83.4586L385.348 85.5107H421.564V2.58154H391.078V28.3036C391.078 45.4517 390.993 54.0257 390.796 54.0257C390.626 54.0257 389.271 52.8451 387.747 51.4114C386.251 50.0058 382.214 46.2107 378.799 43.0341C371.77 36.5122 352.124 18.1835 343.232 9.89055C339.986 6.8545 336.853 3.95901 336.288 3.48111L335.244 2.58154H318.9C309.896 2.58154 302.444 2.66588 302.359 2.77832Z" fill="black"/>
<path d="M428.677 3.05944C428.761 3.34055 435.226 14.1916 443.073 27.1792C450.892 40.1667 461.985 58.6079 467.744 68.1378L478.16 85.4826H492.132L506.105 85.5107L530.945 44.2991C544.607 21.6131 555.842 2.9751 555.87 2.83455C555.926 2.69399 548.898 2.58154 539.357 2.58154H522.759L507.516 27.882C499.133 41.7972 492.217 53.1824 492.132 53.1543C492.047 53.1543 485.132 41.7691 476.776 27.882L461.562 2.58154H445.049C429.467 2.58154 428.564 2.60965 428.677 3.05944Z" fill="black"/>
</svg>
